PathFileType	4	(x/y/z)	S08_PSF_T14
DataRate	CameraRate	NumFrames	NumMarkers	Units	OrigDataRate	OrigDataStartFrame	OrigNumFrames
240	240	8	51	mm	240	1	417
Frame#	Time	Sternum			R.Acromium			L.Acromium			Top.Head			R.ASIS			L.ASIS			R.PSIS			L.PSIS			R.Great.Tro			L.Great.Tro			R.Iliac.Crest			L.Iliac.Crest			V.Sacral			R.Thigh.Upper.Post			R.Thigh.Lower.Ant			R.Thigh.Lower.Post			R.Thigh.Upper.Ant			R.Knee.Lat			R.Knee.Med			R.Shank.Upper.Post			R.Shank.Lower.Ant			R.Shank.Lower.Post			R.Shank.Upper.Ant			R.Ankle.Lat			R.Ankle.Med			R.Heel.Upper			R.Heel.Med			R.Heel.Lat			R.Toe.Lat			R.Toe.Med			R.Toe.Tip			L.Thigh.Upper.Post			L.Thigh.Lower.Ant			L.Thigh.Lower.Post			L.Thigh.Upper.Ant			L.Knee.Lat			L.Knee.Med			L.Shank.Upper.Post			L.Shank.Lower.Ant			L.Shank.Lower.Post			L.Shank.Upper.Ant			L.Ankle.Lat			L.Ankle.Med			L.Heel.Upper			L.Heel.Med			L.Heel.Lat			L.Toe.Lat			L.Toe.Med			L.Toe.Tip			Cervical.Spine			Back			
		X1	Y1	Z1	X2	Y2	Z2	X3	Y3	Z3	X4	Y4	Z4	X5	Y5	Z5	X6	Y6	Z6	X7	Y7	Z7	X8	Y8	Z8	X9	Y9	Z9	X10	Y10	Z10	X11	Y11	Z11	X12	Y12	Z12	X13	Y13	Z13	X14	Y14	Z14	X15	Y15	Z15	X16	Y16	Z16	X17	Y17	Z17	X18	Y18	Z18	X19	Y19	Z19	X20	Y20	Z20	X21	Y21	Z21	X22	Y22	Z22	X23	Y23	Z23	X24	Y24	Z24	X25	Y25	Z25	X26	Y26	Z26	X27	Y27	Z27	X28	Y28	Z28	X29	Y29	Z29	X30	Y30	Z30	X31	Y31	Z31	X32	Y32	Z32	X33	Y33	Z33	X34	Y34	Z34	X35	Y35	Z35	X36	Y36	Z36	X37	Y37	Z37	X38	Y38	Z38	X39	Y39	Z39	X40	Y40	Z40	X41	Y41	Z41	X42	Y42	Z42	X43	Y43	Z43	X44	Y44	Z44	X45	Y45	Z45	X46	Y46	Z46	X47	Y47	Z47	X48	Y48	Z48	X49	Y49	Z49	X50	Y50	Z50	X51	Y51	Z51	

1	0	NaN	NaN	NaN	-1567.6	1451.1	483.86	-1595.8	1480.1	149.94	-1567.5	1768.5	331.49	NaN	NaN	NaN	NaN	NaN	NaN	NaN	NaN	NaN	NaN	NaN	NaN	-1588.1	896.07	484.72	-1571.3	894.08	115.74	-1601.9	1072.5	460.52	-1580.8	1081.6	150.62	-1711.1	985.76	285.18	-1651.8	709.22	464.98	-1597.8	599.12	426.67	NaN	NaN	NaN	NaN	NaN	NaN	-1669.6	509.81	416.51	-1686	523.43	288.58	NaN	NaN	NaN	NaN	NaN	NaN	NaN	NaN	NaN	NaN	NaN	NaN	-1891.1	136.33	356.78	-1852.4	141.18	279.58	-1947.9	108.1	307.84	-1938.2	77.524	282.49	-1948.4	84.631	342.76	-1782.1	40.821	399.49	-1754.7	48.108	283.22	-1691.9	52.864	333.6	-1516.9	687.98	129.62	-1402.4	632.71	151.33	-1472	610.17	145.36	NaN	NaN	NaN	-1417.3	523.86	165.59	-1405.7	526.96	291.37	-1399.8	334.67	167.47	NaN	NaN	NaN	-1364.4	269.7	176.42	-1334.7	349.11	170.48	-1278.4	112.86	197.05	-1259.4	131.47	281.6	-1315.8	63.002	246.53	-1288.6	41.995	281.06	-1294.6	42.693	217.05	-1130.9	105.71	183.16	-1116.9	125.06	293.99	-1068.1	166.13	243.85	-1647.2	1513.4	315.68	-1703.6	1231.8	322.15
2	0.0041667	NaN	NaN	NaN	-1562.7	1450.7	483.5	-1591.1	1479.6	149.56	-1562.9	1768.1	331.06	NaN	NaN	NaN	NaN	NaN	NaN	NaN	NaN	NaN	NaN	NaN	NaN	-1583.1	895.7	484.45	-1565.8	893.75	115.7	-1596.6	1072.1	460.32	-1575.6	1081.2	150.41	-1705.7	985.4	284.91	-1646.6	708.78	464.65	-1592.6	598.64	426.54	NaN	NaN	NaN	NaN	NaN	NaN	-1664.7	509.55	416.63	-1680.5	522.94	288.63	NaN	NaN	NaN	NaN	NaN	NaN	NaN	NaN	NaN	NaN	NaN	NaN	-1889.6	138.19	357.13	-1851.2	142.81	280.17	-1946.6	110.64	308.11	-1937.2	80.147	282.62	-1947.5	87.07	342.9	-1781.9	40.844	399.58	-1754.5	48.256	283.31	-1691.6	52.773	333.61	-1511.5	687.6	129.82	-1397	632.48	151.6	-1466.7	609.85	145.81	NaN	NaN	NaN	-1411.9	523.43	166.05	-1400.6	526.56	291.7	-1396.1	334.18	167.68	NaN	NaN	NaN	-1362.7	268.55	177.51	-1330.9	348.05	170.95	-1276.9	111.65	197.19	-1257.7	129.96	282.02	-1314.5	62.79	246.86	-1287.7	41.35	281.09	-1293.9	42.303	217.23	-1129.7	103.09	183.43	-1115.4	121.94	294.37	-1066	162.64	244.35	-1642.4	1513	315.33	-1698.5	1231.3	321.89
3	0.0083333	NaN	NaN	NaN	-1557.6	1450.3	483.11	-1586.1	1479.1	149.15	-1558.1	1767.7	330.61	NaN	NaN	NaN	NaN	NaN	NaN	NaN	NaN	NaN	NaN	NaN	NaN	-1577.8	895.32	484.17	-1560.1	893.42	115.64	-1591	1071.6	460.12	-1570.1	1080.9	150.18	-1700.1	985.04	284.62	-1641.1	708.33	464.3	-1587.1	598.14	426.43	NaN	NaN	NaN	NaN	NaN	NaN	-1659.5	509.27	416.77	-1674.7	522.42	288.7	NaN	NaN	NaN	NaN	NaN	NaN	NaN	NaN	NaN	NaN	NaN	NaN	-1888.1	140.16	357.5	-1849.9	144.51	280.79	-1945.2	113.35	308.41	-1936.1	82.944	282.76	-1946.4	89.672	343.06	-1781.8	40.876	399.66	-1754.2	48.41	283.42	-1691.3	52.669	333.65	-1505.9	687.23	130.03	-1391.4	632.23	151.89	-1461.1	609.53	146.25	NaN	NaN	NaN	-1406.4	522.98	166.51	-1395.3	526.14	292.01	-1392.2	333.67	167.89	NaN	NaN	NaN	-1360.8	267.39	178.57	-1327	346.97	171.42	-1275.4	110.43	197.34	-1255.9	128.42	282.47	-1313.2	62.623	247.2	-1286.8	40.719	281.14	-1293.1	41.949	217.42	-1128.5	100.36	183.74	-1113.9	118.68	294.77	-1063.9	159	244.9	-1637.3	1512.5	314.96	-1693.2	1230.7	321.62
4	0.0125	NaN	NaN	NaN	-1552.3	1450	482.71	-1580.9	1478.7	148.73	-1553.2	1767.3	330.15	NaN	NaN	NaN	NaN	NaN	NaN	NaN	NaN	NaN	NaN	NaN	NaN	-1572.3	894.94	483.87	-1554.2	893.09	115.57	-1585.3	1071.2	459.9	-1564.5	1080.6	149.94	-1694.3	984.68	284.33	-1635.3	707.88	463.92	-1581.5	597.63	426.33	NaN	NaN	NaN	NaN	NaN	NaN	-1654.1	508.98	416.95	-1668.7	521.86	288.78	NaN	NaN	NaN	NaN	NaN	NaN	NaN	NaN	NaN	NaN	NaN	NaN	-1886.4	142.23	357.9	-1848.4	146.29	281.43	-1943.6	116.22	308.71	-1935	85.915	282.91	-1945.3	92.435	343.22	-1781.6	40.921	399.74	-1753.9	48.572	283.54	-1691	52.552	333.7	-1500	686.87	130.24	-1385.6	631.98	152.18	-1455.4	609.21	146.68	NaN	NaN	NaN	-1400.6	522.52	166.96	-1389.9	525.71	292.3	-1388.3	333.16	168.11	-1289.7	276.83	186.44	-1358.7	266.26	179.6	-1322.9	345.89	171.91	-1273.8	109.21	197.5	-1254	126.87	282.94	-1311.9	62.515	247.57	-1285.9	40.114	281.21	-1292.3	41.643	217.61	-1127.2	97.549	184.08	-1112.3	115.32	295.2	-1061.7	155.21	245.49	-1632.1	1512.1	314.58	-1687.6	1230.2	321.33
5	0.016667	NaN	NaN	NaN	-1546.9	1449.6	482.29	-1575.5	1478.2	148.27	-1548.1	1766.9	329.69	NaN	NaN	NaN	NaN	NaN	NaN	NaN	NaN	NaN	NaN	NaN	NaN	-1566.6	894.55	483.56	-1548.2	892.78	115.48	-1579.3	1070.7	459.67	-1558.7	1080.2	149.69	-1688.3	984.34	284.03	-1629.4	707.41	463.52	-1575.7	597.1	426.26	NaN	NaN	NaN	NaN	NaN	NaN	-1648.5	508.67	417.15	-1662.4	521.28	288.89	NaN	NaN	NaN	NaN	NaN	NaN	NaN	NaN	NaN	NaN	NaN	NaN	-1884.6	144.4	358.34	-1846.7	148.13	282.09	-1941.9	119.26	309.03	-1933.7	89.058	283.07	-1944.1	95.362	343.4	-1781.5	40.982	399.82	-1753.6	48.743	283.66	-1690.8	52.422	333.79	-1494.1	686.55	130.46	-1379.7	631.71	152.47	-1449.6	608.91	147.11	NaN	NaN	NaN	-1394.8	522.07	167.4	-1384.3	525.28	292.55	-1384.2	332.66	168.32	-1286.6	275.77	186.98	-1356.4	265.17	180.55	-1318.7	344.8	172.4	-1272.1	107.99	197.68	-1252	125.34	283.43	-1310.5	62.476	247.94	-1285	39.546	281.29	-1291.4	41.398	217.82	-1125.8	94.668	184.47	-1110.6	111.87	295.66	-1059.4	151.32	246.12	-1626.8	1511.6	314.18	-1682	1229.7	321.03
6	0.020833	NaN	NaN	NaN	-1541.4	1449.3	481.85	-1570.1	1477.7	147.8	-1542.9	1766.6	329.21	NaN	NaN	NaN	NaN	NaN	NaN	NaN	NaN	NaN	NaN	NaN	NaN	-1560.7	894.16	483.23	-1542	892.48	115.38	-1573.2	1070.3	459.44	-1552.7	1079.9	149.43	-1682.2	984.02	283.73	-1623.4	706.94	463.1	-1569.7	596.55	426.22	NaN	NaN	NaN	NaN	NaN	NaN	-1642.6	508.35	417.38	-1655.8	520.66	289.03	NaN	NaN	NaN	NaN	NaN	NaN	NaN	NaN	NaN	NaN	NaN	NaN	-1882.6	146.66	358.8	-1844.9	150.04	282.78	-1940	122.45	309.36	-1932.2	92.374	283.23	-1942.7	98.453	343.58	-1781.3	41.064	399.9	-1753.3	48.925	283.79	-1690.6	52.28	333.9	-1488	686.25	130.67	-1373.8	631.44	152.76	-1443.7	608.63	147.51	NaN	NaN	NaN	-1388.9	521.61	167.81	-1378.7	524.84	292.76	-1380	332.17	168.53	-1283.4	274.68	187.53	-1353.9	264.13	181.43	-1314.5	343.73	172.89	-1270.3	106.79	197.86	-1250	123.83	283.94	-1309	62.514	248.33	-1284	39.027	281.4	-1290.5	41.22	218.03	-1124.3	91.737	184.9	-1109	108.36	296.14	-1057.1	147.33	246.79	-1621.3	1511.2	313.76	-1676.1	1229.2	320.71
7	0.025	NaN	NaN	NaN	-1535.8	1448.9	481.4	-1564.4	1477.3	147.3	-1537.7	1766.2	328.74	NaN	NaN	NaN	NaN	NaN	NaN	NaN	NaN	NaN	NaN	NaN	NaN	-1554.6	893.77	482.89	-1535.7	892.21	115.25	-1566.9	1069.9	459.2	-1546.6	1079.7	149.15	-1676	983.73	283.44	-1617.2	706.48	462.66	-1563.7	596	426.22	NaN	NaN	NaN	NaN	NaN	NaN	-1636.5	508.01	417.64	-1649	520	289.2	NaN	NaN	NaN	NaN	NaN	NaN	NaN	NaN	NaN	NaN	NaN	NaN	-1880.5	149.02	359.3	-1842.9	151.99	283.48	-1937.9	125.81	309.71	-1930.7	95.865	283.41	-1941.2	101.71	343.78	-1781.1	41.172	399.97	-1752.9	49.12	283.93	-1690.4	52.127	334.03	-1481.9	686	130.87	-1367.7	631.17	153.05	-1437.8	608.38	147.88	NaN	NaN	NaN	-1383	521.17	168.19	-1373.1	524.41	292.91	-1375.7	331.69	168.73	-1280.1	273.59	188.08	-1351.2	263.16	182.22	-1310.2	342.69	173.37	-1268.4	105.63	198.04	-1247.9	122.36	284.46	-1307.5	62.632	248.73	-1283.1	38.563	281.52	-1289.6	41.115	218.24	-1122.7	88.775	185.37	-1107.3	104.8	296.64	-1054.7	143.27	247.49	-1615.8	1510.8	313.33	-1670.2	1228.6	320.39
8	0.029167	NaN	NaN	NaN	-1530.1	1448.6	480.93	-1558.7	1476.9	146.79	-1532.4	1765.9	328.26	NaN	NaN	NaN	NaN	NaN	NaN	NaN	NaN	NaN	NaN	NaN	NaN	-1548.5	893.38	482.54	-1529.3	891.97	115.11	-1560.6	1069.6	458.95	-1540.4	1079.4	148.87	-1669.6	983.46	283.14	-1610.9	706.01	462.2	-1557.6	595.43	426.26	NaN	NaN	NaN	NaN	NaN	NaN	-1630.1	507.65	417.94	-1642	519.31	289.39	NaN	NaN	NaN	NaN	NaN	NaN	NaN	NaN	NaN	NaN	NaN	NaN	-1878.3	151.46	359.83	-1840.6	154	284.21	-1935.7	129.33	310.07	-1928.9	99.532	283.6	-1939.5	105.14	344	-1780.9	41.312	400.03	-1752.5	49.332	284.07	-1690.2	51.966	334.19	-1475.7	685.79	131.05	-1361.7	630.9	153.33	-1431.8	608.15	148.22	NaN	NaN	NaN	-1377.1	520.74	168.54	-1367.5	523.98	293	-1371.4	331.25	168.92	-1276.7	272.5	188.62	-1348.4	262.26	182.92	-1305.8	341.67	173.83	-1266.5	104.51	198.23	-1245.8	120.95	284.98	-1305.9	62.831	249.13	-1282.1	38.163	281.66	-1288.7	41.084	218.45	-1121.1	85.801	185.88	-1105.6	101.22	297.16	-1052.3	139.15	248.22	-1610.2	1510.4	312.88	-1664.2	1228.2	320.04
